<mxfile host="Electron" agent="Mozilla/5.0 (Windows NT 10.0; Win64; x64) AppleWebKit/537.36 (KHTML, like Gecko) draw.io/26.2.15 Chrome/134.0.6998.205 Electron/35.2.1 Safari/537.36" version="26.2.15">
  <diagram name="Página-1" id="5fdNr0kuIxPV9N6J3VZB">
    <mxGraphModel dx="2765" dy="1176" grid="1" gridSize="10" guides="1" tooltips="1" connect="1" arrows="1" fold="1" page="1" pageScale="1" pageWidth="827" pageHeight="1169" background="#ffffff" math="0" shadow="0">
      <root>
        <mxCell id="0" />
        <mxCell id="1" parent="0" />
        <mxCell id="hG0kEqEVY-e1srGyoO5b-1" value="" style="rounded=1;whiteSpace=wrap;html=1;fillColor=#fff2cc;strokeColor=#d6b656;strokeWidth=3;" parent="1" vertex="1">
          <mxGeometry x="290" y="170" width="120" height="60" as="geometry" />
        </mxCell>
        <mxCell id="hG0kEqEVY-e1srGyoO5b-8" style="edgeStyle=orthogonalEdgeStyle;rounded=0;orthogonalLoop=1;jettySize=auto;html=1;entryX=0.5;entryY=0;entryDx=0;entryDy=0;strokeColor=#000000;curved=1;exitX=0.5;exitY=1;exitDx=0;exitDy=0;strokeWidth=2;" parent="1" source="hG0kEqEVY-e1srGyoO5b-1" target="hG0kEqEVY-e1srGyoO5b-4" edge="1">
          <mxGeometry relative="1" as="geometry" />
        </mxCell>
        <mxCell id="hG0kEqEVY-e1srGyoO5b-2" value="&lt;font color=&quot;#000000&quot;&gt;&lt;span style=&quot;font-size: 19px;&quot;&gt;crear usuario&lt;/span&gt;&lt;/font&gt;" style="text;html=1;align=center;verticalAlign=middle;whiteSpace=wrap;rounded=0;fillColor=#fff2cc;strokeColor=#d6b656;" parent="1" vertex="1">
          <mxGeometry x="290" y="179.5" width="120" height="41" as="geometry" />
        </mxCell>
        <mxCell id="oRccqWHDwEhdqV4hWqH1-9" style="edgeStyle=orthogonalEdgeStyle;curved=1;rounded=0;orthogonalLoop=1;jettySize=auto;html=1;exitX=0.5;exitY=1;exitDx=0;exitDy=0;entryX=0.5;entryY=0;entryDx=0;entryDy=0;strokeColor=#ae4132;fillColor=#fad9d5;" edge="1" parent="1" source="oRccqWHDwEhdqV4hWqH1-12" target="oRccqWHDwEhdqV4hWqH1-3">
          <mxGeometry relative="1" as="geometry">
            <mxPoint x="210" y="545" as="sourcePoint" />
          </mxGeometry>
        </mxCell>
        <mxCell id="hG0kEqEVY-e1srGyoO5b-4" value="" style="rounded=1;whiteSpace=wrap;html=1;fillColor=#fad9d5;strokeColor=#ae4132;strokeWidth=3;" parent="1" vertex="1">
          <mxGeometry x="130" y="308.5" width="120" height="60" as="geometry" />
        </mxCell>
        <mxCell id="oRccqWHDwEhdqV4hWqH1-8" style="edgeStyle=orthogonalEdgeStyle;curved=1;rounded=0;orthogonalLoop=1;jettySize=auto;html=1;entryX=0.5;entryY=0;entryDx=0;entryDy=0;fontColor=#000000;labelBackgroundColor=none;strokeColor=#ae4132;exitX=0.5;exitY=1;exitDx=0;exitDy=0;fillColor=#fad9d5;" edge="1" parent="1" source="oRccqWHDwEhdqV4hWqH1-12" target="oRccqWHDwEhdqV4hWqH1-5">
          <mxGeometry relative="1" as="geometry">
            <mxPoint x="200" y="545" as="sourcePoint" />
          </mxGeometry>
        </mxCell>
        <mxCell id="hG0kEqEVY-e1srGyoO5b-5" value="&lt;font color=&quot;#000000&quot;&gt;&lt;span style=&quot;font-size: 19px;&quot;&gt;inicio sesion cliente&lt;/span&gt;&lt;/font&gt;" style="text;html=1;align=center;verticalAlign=middle;whiteSpace=wrap;rounded=0;fillColor=#fad9d5;strokeColor=#ae4132;" parent="1" vertex="1">
          <mxGeometry x="130" y="318" width="120" height="41" as="geometry" />
        </mxCell>
        <mxCell id="oRccqWHDwEhdqV4hWqH1-31" style="edgeStyle=orthogonalEdgeStyle;curved=1;rounded=0;orthogonalLoop=1;jettySize=auto;html=1;exitX=0.5;exitY=1;exitDx=0;exitDy=0;entryX=0.5;entryY=0;entryDx=0;entryDy=0;strokeColor=#23445d;fillColor=#bac8d3;" edge="1" parent="1" source="hG0kEqEVY-e1srGyoO5b-6" target="oRccqWHDwEhdqV4hWqH1-29">
          <mxGeometry relative="1" as="geometry" />
        </mxCell>
        <mxCell id="oRccqWHDwEhdqV4hWqH1-38" style="edgeStyle=orthogonalEdgeStyle;curved=1;rounded=0;orthogonalLoop=1;jettySize=auto;html=1;exitX=0.5;exitY=1;exitDx=0;exitDy=0;entryX=0.5;entryY=0;entryDx=0;entryDy=0;strokeColor=#23445d;fillColor=#bac8d3;" edge="1" parent="1" source="hG0kEqEVY-e1srGyoO5b-6" target="oRccqWHDwEhdqV4hWqH1-35">
          <mxGeometry relative="1" as="geometry" />
        </mxCell>
        <mxCell id="oRccqWHDwEhdqV4hWqH1-41" style="edgeStyle=orthogonalEdgeStyle;curved=1;rounded=0;orthogonalLoop=1;jettySize=auto;html=1;exitX=0.5;exitY=1;exitDx=0;exitDy=0;entryX=0.5;entryY=0;entryDx=0;entryDy=0;strokeColor=#23445d;fillColor=#bac8d3;" edge="1" parent="1" source="hG0kEqEVY-e1srGyoO5b-6" target="oRccqWHDwEhdqV4hWqH1-39">
          <mxGeometry relative="1" as="geometry" />
        </mxCell>
        <mxCell id="oRccqWHDwEhdqV4hWqH1-45" style="edgeStyle=orthogonalEdgeStyle;curved=1;rounded=0;orthogonalLoop=1;jettySize=auto;html=1;exitX=0.5;exitY=1;exitDx=0;exitDy=0;entryX=0.5;entryY=0;entryDx=0;entryDy=0;strokeColor=#23445d;fillColor=#bac8d3;" edge="1" parent="1" source="hG0kEqEVY-e1srGyoO5b-6" target="oRccqWHDwEhdqV4hWqH1-42">
          <mxGeometry relative="1" as="geometry" />
        </mxCell>
        <mxCell id="oRccqWHDwEhdqV4hWqH1-50" style="edgeStyle=orthogonalEdgeStyle;curved=1;rounded=0;orthogonalLoop=1;jettySize=auto;html=1;exitX=0.5;exitY=1;exitDx=0;exitDy=0;entryX=0.5;entryY=0;entryDx=0;entryDy=0;strokeColor=#23445d;fillColor=#bac8d3;" edge="1" parent="1" source="hG0kEqEVY-e1srGyoO5b-6" target="oRccqWHDwEhdqV4hWqH1-48">
          <mxGeometry relative="1" as="geometry" />
        </mxCell>
        <mxCell id="hG0kEqEVY-e1srGyoO5b-6" value="" style="rounded=1;whiteSpace=wrap;html=1;fillColor=#bac8d3;strokeColor=#23445d;strokeWidth=3;" parent="1" vertex="1">
          <mxGeometry x="490" y="308.5" width="120" height="60" as="geometry" />
        </mxCell>
        <mxCell id="hG0kEqEVY-e1srGyoO5b-7" value="&lt;font color=&quot;#000000&quot;&gt;&lt;span style=&quot;font-size: 19px;&quot;&gt;inicion sesion emplado&amp;nbsp;&lt;/span&gt;&lt;/font&gt;" style="text;html=1;align=center;verticalAlign=middle;whiteSpace=wrap;rounded=0;fillColor=#bac8d3;strokeColor=#23445d;" parent="1" vertex="1">
          <mxGeometry x="490" y="318" width="120" height="41" as="geometry" />
        </mxCell>
        <mxCell id="oRccqWHDwEhdqV4hWqH1-2" style="edgeStyle=orthogonalEdgeStyle;rounded=0;orthogonalLoop=1;jettySize=auto;html=1;entryX=0.5;entryY=0;entryDx=0;entryDy=0;strokeColor=#000000;curved=1;exitX=0.5;exitY=1;exitDx=0;exitDy=0;strokeWidth=2;" edge="1" parent="1" source="hG0kEqEVY-e1srGyoO5b-1" target="hG0kEqEVY-e1srGyoO5b-6">
          <mxGeometry relative="1" as="geometry">
            <mxPoint x="360" y="240" as="sourcePoint" />
            <mxPoint x="260" y="309" as="targetPoint" />
          </mxGeometry>
        </mxCell>
        <mxCell id="oRccqWHDwEhdqV4hWqH1-20" style="edgeStyle=orthogonalEdgeStyle;curved=1;rounded=0;orthogonalLoop=1;jettySize=auto;html=1;exitX=0.5;exitY=1;exitDx=0;exitDy=0;entryX=0.5;entryY=0;entryDx=0;entryDy=0;strokeColor=#000000;" edge="1" parent="1" source="oRccqWHDwEhdqV4hWqH1-3" target="oRccqWHDwEhdqV4hWqH1-16">
          <mxGeometry relative="1" as="geometry" />
        </mxCell>
        <mxCell id="oRccqWHDwEhdqV4hWqH1-21" style="edgeStyle=orthogonalEdgeStyle;curved=1;rounded=0;orthogonalLoop=1;jettySize=auto;html=1;exitX=0.5;exitY=1;exitDx=0;exitDy=0;entryX=0.5;entryY=0;entryDx=0;entryDy=0;strokeColor=#000000;" edge="1" parent="1" source="oRccqWHDwEhdqV4hWqH1-3" target="oRccqWHDwEhdqV4hWqH1-10">
          <mxGeometry relative="1" as="geometry">
            <Array as="points">
              <mxPoint x="290" y="670" />
              <mxPoint x="220" y="670" />
              <mxPoint x="220" y="730" />
            </Array>
          </mxGeometry>
        </mxCell>
        <mxCell id="oRccqWHDwEhdqV4hWqH1-22" style="edgeStyle=orthogonalEdgeStyle;curved=1;rounded=0;orthogonalLoop=1;jettySize=auto;html=1;exitX=0.5;exitY=1;exitDx=0;exitDy=0;entryX=0.5;entryY=0;entryDx=0;entryDy=0;strokeColor=#030303;" edge="1" parent="1" source="oRccqWHDwEhdqV4hWqH1-3" target="oRccqWHDwEhdqV4hWqH1-18">
          <mxGeometry relative="1" as="geometry" />
        </mxCell>
        <mxCell id="oRccqWHDwEhdqV4hWqH1-3" value="" style="rounded=1;whiteSpace=wrap;html=1;fillColor=#fad9d5;strokeColor=#ae4132;strokeWidth=3;" vertex="1" parent="1">
          <mxGeometry x="230" y="550" width="120" height="60" as="geometry" />
        </mxCell>
        <mxCell id="oRccqWHDwEhdqV4hWqH1-4" value="&lt;font color=&quot;#000000&quot;&gt;&lt;span style=&quot;font-size: 19px;&quot;&gt;Ver carrito&lt;/span&gt;&lt;/font&gt;" style="text;html=1;align=center;verticalAlign=middle;whiteSpace=wrap;rounded=0;fillColor=#fad9d5;strokeColor=#ae4132;" vertex="1" parent="1">
          <mxGeometry x="230" y="559.5" width="120" height="41" as="geometry" />
        </mxCell>
        <mxCell id="oRccqWHDwEhdqV4hWqH1-5" value="" style="rounded=1;whiteSpace=wrap;html=1;fillColor=#fad9d5;strokeColor=#ae4132;strokeWidth=3;" vertex="1" parent="1">
          <mxGeometry x="30" y="550" width="130" height="60" as="geometry" />
        </mxCell>
        <mxCell id="oRccqWHDwEhdqV4hWqH1-6" value="&lt;font style=&quot;font-size: 17px;&quot; color=&quot;#000000&quot;&gt;añadir producto&amp;nbsp;&lt;/font&gt;&lt;div&gt;&lt;font style=&quot;font-size: 17px;&quot; color=&quot;#000000&quot;&gt;al carrito&lt;/font&gt;&lt;/div&gt;" style="text;html=1;align=center;verticalAlign=middle;whiteSpace=wrap;rounded=0;fontStyle=0;fillColor=#fad9d5;strokeColor=#ae4132;" vertex="1" parent="1">
          <mxGeometry x="30" y="559.5" width="140" height="50.5" as="geometry" />
        </mxCell>
        <mxCell id="oRccqWHDwEhdqV4hWqH1-10" value="" style="rounded=1;whiteSpace=wrap;html=1;fillColor=#fad9d5;strokeColor=#ae4132;strokeWidth=3;" vertex="1" parent="1">
          <mxGeometry x="160" y="730" width="130" height="80" as="geometry" />
        </mxCell>
        <mxCell id="oRccqWHDwEhdqV4hWqH1-11" value="&lt;font color=&quot;#000000&quot;&gt;&lt;span style=&quot;font-size: 19px;&quot;&gt;modificar comparas pendientes&lt;/span&gt;&lt;/font&gt;" style="text;html=1;align=center;verticalAlign=middle;whiteSpace=wrap;rounded=0;fillColor=#fad9d5;strokeColor=#ae4132;" vertex="1" parent="1">
          <mxGeometry x="160" y="749.5" width="120" height="41" as="geometry" />
        </mxCell>
        <mxCell id="oRccqWHDwEhdqV4hWqH1-12" value="" style="rounded=1;whiteSpace=wrap;html=1;fillColor=#fad9d5;strokeColor=#ae4132;strokeWidth=3;" vertex="1" parent="1">
          <mxGeometry x="130" y="410" width="120" height="60" as="geometry" />
        </mxCell>
        <mxCell id="oRccqWHDwEhdqV4hWqH1-14" value="&lt;font color=&quot;#000000&quot;&gt;&lt;span style=&quot;font-size: 19px;&quot;&gt;validar cuenta&lt;/span&gt;&lt;/font&gt;" style="text;html=1;align=center;verticalAlign=middle;whiteSpace=wrap;rounded=0;fillColor=#fad9d5;strokeColor=#ae4132;" vertex="1" parent="1">
          <mxGeometry x="140" y="419.5" width="100" height="41" as="geometry" />
        </mxCell>
        <mxCell id="oRccqWHDwEhdqV4hWqH1-15" style="edgeStyle=orthogonalEdgeStyle;curved=1;rounded=0;orthogonalLoop=1;jettySize=auto;html=1;exitX=0.5;exitY=1;exitDx=0;exitDy=0;entryX=0.492;entryY=-0.042;entryDx=0;entryDy=0;entryPerimeter=0;strokeColor=#ae4132;fillColor=#fad9d5;" edge="1" parent="1" source="hG0kEqEVY-e1srGyoO5b-4" target="oRccqWHDwEhdqV4hWqH1-12">
          <mxGeometry relative="1" as="geometry" />
        </mxCell>
        <mxCell id="oRccqWHDwEhdqV4hWqH1-16" value="" style="rounded=1;whiteSpace=wrap;html=1;fillColor=#fad9d5;strokeColor=#ae4132;strokeWidth=3;" vertex="1" parent="1">
          <mxGeometry y="730" width="130" height="80" as="geometry" />
        </mxCell>
        <mxCell id="oRccqWHDwEhdqV4hWqH1-17" value="&lt;font color=&quot;#000000&quot;&gt;&lt;span style=&quot;font-size: 19px;&quot;&gt;consultar pedidos pendientes&lt;/span&gt;&lt;/font&gt;" style="text;html=1;align=center;verticalAlign=middle;whiteSpace=wrap;rounded=0;fillColor=#fad9d5;strokeColor=#ae4132;" vertex="1" parent="1">
          <mxGeometry y="749.5" width="120" height="41" as="geometry" />
        </mxCell>
        <mxCell id="oRccqWHDwEhdqV4hWqH1-25" style="edgeStyle=orthogonalEdgeStyle;curved=1;rounded=0;orthogonalLoop=1;jettySize=auto;html=1;exitX=0.5;exitY=1;exitDx=0;exitDy=0;strokeColor=#ae4132;entryX=0.5;entryY=0;entryDx=0;entryDy=0;fillColor=#fad9d5;" edge="1" parent="1" source="oRccqWHDwEhdqV4hWqH1-18" target="oRccqWHDwEhdqV4hWqH1-26">
          <mxGeometry relative="1" as="geometry">
            <mxPoint x="140" y="870" as="targetPoint" />
          </mxGeometry>
        </mxCell>
        <mxCell id="oRccqWHDwEhdqV4hWqH1-18" value="" style="rounded=1;whiteSpace=wrap;html=1;fillColor=#fad9d5;strokeColor=#ae4132;strokeWidth=3;" vertex="1" parent="1">
          <mxGeometry x="320" y="730" width="130" height="80" as="geometry" />
        </mxCell>
        <mxCell id="oRccqWHDwEhdqV4hWqH1-19" value="&lt;font color=&quot;#000000&quot;&gt;&lt;span&gt;confirmar compra&lt;/span&gt;&lt;/font&gt;" style="text;html=1;align=center;verticalAlign=middle;whiteSpace=wrap;rounded=0;fontSize=22;fillColor=#fad9d5;strokeColor=#ae4132;" vertex="1" parent="1">
          <mxGeometry x="320" y="749.5" width="120" height="41" as="geometry" />
        </mxCell>
        <mxCell id="oRccqWHDwEhdqV4hWqH1-28" style="edgeStyle=orthogonalEdgeStyle;rounded=0;orthogonalLoop=1;jettySize=auto;html=1;exitX=0.5;exitY=1;exitDx=0;exitDy=0;strokeColor=#ae4132;curved=1;entryX=0.5;entryY=0;entryDx=0;entryDy=0;fillColor=#fad9d5;" edge="1" parent="1" source="oRccqWHDwEhdqV4hWqH1-26" target="oRccqWHDwEhdqV4hWqH1-23">
          <mxGeometry relative="1" as="geometry">
            <mxPoint x="150" y="1030" as="targetPoint" />
          </mxGeometry>
        </mxCell>
        <mxCell id="oRccqWHDwEhdqV4hWqH1-23" value="" style="rounded=1;whiteSpace=wrap;html=1;fillColor=#fad9d5;strokeColor=#ae4132;strokeWidth=3;" vertex="1" parent="1">
          <mxGeometry x="65" y="1000" width="130" height="80" as="geometry" />
        </mxCell>
        <mxCell id="oRccqWHDwEhdqV4hWqH1-24" value="&lt;font color=&quot;#000000&quot;&gt;&lt;span&gt;finalizar compra&lt;/span&gt;&lt;/font&gt;" style="text;html=1;align=center;verticalAlign=middle;whiteSpace=wrap;rounded=0;fontSize=22;fillColor=#fad9d5;strokeColor=#ae4132;" vertex="1" parent="1">
          <mxGeometry x="65" y="1019.5" width="125" height="40.5" as="geometry" />
        </mxCell>
        <mxCell id="oRccqWHDwEhdqV4hWqH1-26" value="" style="rounded=1;whiteSpace=wrap;html=1;fillColor=#fad9d5;strokeColor=#ae4132;strokeWidth=3;" vertex="1" parent="1">
          <mxGeometry x="85" y="880" width="130" height="80" as="geometry" />
        </mxCell>
        <mxCell id="oRccqWHDwEhdqV4hWqH1-27" value="&lt;font color=&quot;#000000&quot;&gt;&lt;span&gt;realizar pagos&lt;/span&gt;&lt;/font&gt;" style="text;html=1;align=center;verticalAlign=middle;whiteSpace=wrap;rounded=0;fontSize=22;fillColor=#fad9d5;strokeColor=#ae4132;" vertex="1" parent="1">
          <mxGeometry x="105" y="899.5" width="90" height="41" as="geometry" />
        </mxCell>
        <mxCell id="oRccqWHDwEhdqV4hWqH1-34" style="edgeStyle=orthogonalEdgeStyle;curved=1;rounded=0;orthogonalLoop=1;jettySize=auto;html=1;exitX=0.5;exitY=1;exitDx=0;exitDy=0;entryX=0.5;entryY=0;entryDx=0;entryDy=0;strokeColor=#23445d;fillColor=#bac8d3;" edge="1" parent="1" source="oRccqWHDwEhdqV4hWqH1-29" target="oRccqWHDwEhdqV4hWqH1-32">
          <mxGeometry relative="1" as="geometry" />
        </mxCell>
        <mxCell id="oRccqWHDwEhdqV4hWqH1-29" value="" style="rounded=1;whiteSpace=wrap;html=1;fillColor=#bac8d3;strokeColor=#23445d;strokeWidth=3;" vertex="1" parent="1">
          <mxGeometry x="490" y="675" width="120" height="60" as="geometry" />
        </mxCell>
        <mxCell id="oRccqWHDwEhdqV4hWqH1-30" value="&lt;font color=&quot;#000000&quot;&gt;&lt;span style=&quot;font-size: 19px;&quot;&gt;visualizar pedidos&lt;/span&gt;&lt;/font&gt;" style="text;html=1;align=center;verticalAlign=middle;whiteSpace=wrap;rounded=0;fillColor=#bac8d3;strokeColor=#23445d;" vertex="1" parent="1">
          <mxGeometry x="490" y="684.5" width="120" height="41" as="geometry" />
        </mxCell>
        <mxCell id="oRccqWHDwEhdqV4hWqH1-32" value="" style="rounded=1;whiteSpace=wrap;html=1;fillColor=#bac8d3;strokeColor=#23445d;strokeWidth=3;" vertex="1" parent="1">
          <mxGeometry x="700" y="785.5" width="120" height="60" as="geometry" />
        </mxCell>
        <mxCell id="oRccqWHDwEhdqV4hWqH1-33" value="&lt;font color=&quot;#000000&quot;&gt;&lt;span style=&quot;font-size: 19px;&quot;&gt;anular pedido&lt;/span&gt;&lt;/font&gt;" style="text;html=1;align=center;verticalAlign=middle;whiteSpace=wrap;rounded=0;fillColor=#bac8d3;strokeColor=#23445d;" vertex="1" parent="1">
          <mxGeometry x="700" y="795" width="120" height="41" as="geometry" />
        </mxCell>
        <mxCell id="oRccqWHDwEhdqV4hWqH1-35" value="" style="rounded=1;whiteSpace=wrap;html=1;fillColor=#bac8d3;strokeColor=#23445d;strokeWidth=3;" vertex="1" parent="1">
          <mxGeometry x="370" y="470" width="120" height="60" as="geometry" />
        </mxCell>
        <mxCell id="oRccqWHDwEhdqV4hWqH1-36" value="&lt;font color=&quot;#000000&quot;&gt;&lt;span style=&quot;font-size: 19px;&quot;&gt;ver stock&lt;/span&gt;&lt;/font&gt;" style="text;html=1;align=center;verticalAlign=middle;whiteSpace=wrap;rounded=0;fillColor=#bac8d3;strokeColor=#23445d;" vertex="1" parent="1">
          <mxGeometry x="370" y="479.5" width="120" height="41" as="geometry" />
        </mxCell>
        <mxCell id="oRccqWHDwEhdqV4hWqH1-39" value="" style="rounded=1;whiteSpace=wrap;html=1;fillColor=#bac8d3;strokeColor=#23445d;strokeWidth=3;" vertex="1" parent="1">
          <mxGeometry x="780" y="340" width="190" height="90" as="geometry" />
        </mxCell>
        <mxCell id="oRccqWHDwEhdqV4hWqH1-40" value="&lt;font color=&quot;#000000&quot;&gt;&lt;span style=&quot;font-size: 19px;&quot;&gt;acceder a repoerts mas avanzados&lt;/span&gt;&lt;/font&gt;" style="text;html=1;align=center;verticalAlign=middle;whiteSpace=wrap;rounded=0;fillColor=#bac8d3;strokeColor=#23445d;" vertex="1" parent="1">
          <mxGeometry x="783.5" y="355" width="186.5" height="60" as="geometry" />
        </mxCell>
        <mxCell id="oRccqWHDwEhdqV4hWqH1-42" value="" style="rounded=1;whiteSpace=wrap;html=1;fillColor=#bac8d3;strokeColor=#23445d;strokeWidth=3;" vertex="1" parent="1">
          <mxGeometry x="700" y="585" width="180" height="90" as="geometry" />
        </mxCell>
        <mxCell id="oRccqWHDwEhdqV4hWqH1-43" value="&lt;font color=&quot;#000000&quot;&gt;&lt;span style=&quot;font-size: 19px;&quot;&gt;gestionar correos o contactos de notificacion&lt;/span&gt;&lt;/font&gt;" style="text;html=1;align=center;verticalAlign=middle;whiteSpace=wrap;rounded=0;fillColor=#bac8d3;strokeColor=#23445d;" vertex="1" parent="1">
          <mxGeometry x="710" y="604" width="160" height="41" as="geometry" />
        </mxCell>
        <mxCell id="oRccqWHDwEhdqV4hWqH1-44" style="edgeStyle=orthogonalEdgeStyle;curved=1;rounded=0;orthogonalLoop=1;jettySize=auto;html=1;entryX=1;entryY=0.5;entryDx=0;entryDy=0;fillColor=#bac8d3;strokeColor=#23445d;" edge="1" parent="1" source="oRccqWHDwEhdqV4hWqH1-40" target="oRccqWHDwEhdqV4hWqH1-40">
          <mxGeometry relative="1" as="geometry" />
        </mxCell>
        <mxCell id="oRccqWHDwEhdqV4hWqH1-53" style="edgeStyle=orthogonalEdgeStyle;curved=1;rounded=0;orthogonalLoop=1;jettySize=auto;html=1;exitX=0.5;exitY=1;exitDx=0;exitDy=0;entryX=0.5;entryY=0;entryDx=0;entryDy=0;strokeColor=#23445d;fillColor=#bac8d3;" edge="1" parent="1" source="oRccqWHDwEhdqV4hWqH1-48" target="oRccqWHDwEhdqV4hWqH1-51">
          <mxGeometry relative="1" as="geometry" />
        </mxCell>
        <mxCell id="oRccqWHDwEhdqV4hWqH1-48" value="" style="rounded=1;whiteSpace=wrap;html=1;fillColor=#bac8d3;strokeColor=#23445d;strokeWidth=3;" vertex="1" parent="1">
          <mxGeometry x="840" y="510" width="120" height="60" as="geometry" />
        </mxCell>
        <mxCell id="oRccqWHDwEhdqV4hWqH1-49" value="&lt;font color=&quot;#000000&quot;&gt;&lt;span style=&quot;font-size: 19px;&quot;&gt;ver estado usuarios&lt;/span&gt;&lt;/font&gt;" style="text;html=1;align=center;verticalAlign=middle;whiteSpace=wrap;rounded=0;fillColor=#bac8d3;strokeColor=#23445d;" vertex="1" parent="1">
          <mxGeometry x="840" y="519.5" width="120" height="41" as="geometry" />
        </mxCell>
        <mxCell id="oRccqWHDwEhdqV4hWqH1-51" value="" style="rounded=1;whiteSpace=wrap;html=1;fillColor=#bac8d3;strokeColor=#23445d;strokeWidth=3;" vertex="1" parent="1">
          <mxGeometry x="1090" y="510" width="120" height="60" as="geometry" />
        </mxCell>
        <mxCell id="oRccqWHDwEhdqV4hWqH1-52" value="&lt;font color=&quot;#000000&quot;&gt;&lt;span style=&quot;font-size: 19px;&quot;&gt;dar de baja usuarios&lt;/span&gt;&lt;/font&gt;" style="text;html=1;align=center;verticalAlign=middle;whiteSpace=wrap;rounded=0;fillColor=#bac8d3;strokeColor=#23445d;" vertex="1" parent="1">
          <mxGeometry x="1090" y="519.5" width="120" height="41" as="geometry" />
        </mxCell>
        <mxCell id="oRccqWHDwEhdqV4hWqH1-59" value="" style="edgeStyle=orthogonalEdgeStyle;curved=1;rounded=0;orthogonalLoop=1;jettySize=auto;html=1;" edge="1" parent="1" source="oRccqWHDwEhdqV4hWqH1-54" target="oRccqWHDwEhdqV4hWqH1-39">
          <mxGeometry relative="1" as="geometry" />
        </mxCell>
        <mxCell id="oRccqWHDwEhdqV4hWqH1-64" style="edgeStyle=orthogonalEdgeStyle;curved=1;rounded=0;orthogonalLoop=1;jettySize=auto;html=1;exitX=0.5;exitY=0.5;exitDx=0;exitDy=0;exitPerimeter=0;entryX=0.5;entryY=0;entryDx=0;entryDy=0;strokeColor=#000000;" edge="1" parent="1" source="oRccqWHDwEhdqV4hWqH1-54" target="hG0kEqEVY-e1srGyoO5b-6">
          <mxGeometry relative="1" as="geometry" />
        </mxCell>
        <mxCell id="oRccqWHDwEhdqV4hWqH1-54" value="Actor" style="shape=umlActor;verticalLabelPosition=bottom;verticalAlign=top;html=1;outlineConnect=0;strokeColor=#000000;" vertex="1" parent="1">
          <mxGeometry x="800" y="160" width="40" height="70" as="geometry" />
        </mxCell>
        <mxCell id="oRccqWHDwEhdqV4hWqH1-62" style="rounded=0;orthogonalLoop=1;jettySize=auto;html=1;exitX=0.5;exitY=0.5;exitDx=0;exitDy=0;exitPerimeter=0;entryX=0;entryY=0.5;entryDx=0;entryDy=0;strokeColor=#000000;" edge="1" parent="1" source="oRccqWHDwEhdqV4hWqH1-55" target="hG0kEqEVY-e1srGyoO5b-1">
          <mxGeometry relative="1" as="geometry" />
        </mxCell>
        <mxCell id="oRccqWHDwEhdqV4hWqH1-63" style="edgeStyle=orthogonalEdgeStyle;curved=1;rounded=0;orthogonalLoop=1;jettySize=auto;html=1;exitX=0.5;exitY=0.5;exitDx=0;exitDy=0;exitPerimeter=0;entryX=0.5;entryY=0;entryDx=0;entryDy=0;strokeColor=#000000;" edge="1" parent="1" source="oRccqWHDwEhdqV4hWqH1-55" target="hG0kEqEVY-e1srGyoO5b-4">
          <mxGeometry relative="1" as="geometry" />
        </mxCell>
        <mxCell id="oRccqWHDwEhdqV4hWqH1-55" value="Actor" style="shape=umlActor;verticalLabelPosition=bottom;verticalAlign=top;html=1;outlineConnect=0;strokeColor=#000000;" vertex="1" parent="1">
          <mxGeometry x="-40" y="160" width="46.5" height="70" as="geometry" />
        </mxCell>
        <mxCell id="oRccqWHDwEhdqV4hWqH1-60" value="&lt;font&gt;jefe de ventas&lt;/font&gt;" style="text;html=1;align=center;verticalAlign=middle;resizable=0;points=[];autosize=1;strokeColor=none;fillColor=none;fontColor=#000000;fontSize=17;" vertex="1" parent="1">
          <mxGeometry x="760" y="230" width="120" height="30" as="geometry" />
        </mxCell>
        <mxCell id="oRccqWHDwEhdqV4hWqH1-61" value="cliente" style="text;html=1;align=center;verticalAlign=middle;resizable=0;points=[];autosize=1;strokeColor=none;fillColor=none;fontColor=#000000;fontSize=17;" vertex="1" parent="1">
          <mxGeometry x="-51.75" y="240" width="70" height="30" as="geometry" />
        </mxCell>
      </root>
    </mxGraphModel>
  </diagram>
</mxfile>
